# File created by Blade
# Date/Time:  Tue Jan 27 18:55:50 2015
# Frame Rate: 120.000 fps
#------------------------------------------------------
:FULLY-SPECIFIED
:DEGREES
3665
root -3.327506 32.169079 -6.489344 14.091777 -11.221424 -4.618600
Spine -2.482621 -2.571757 -3.801300
Head 10.548012 7.584943 11.905509
LeftShoulder -15.365234 18.186993 17.048531
LeftArm 1.822049 -27.129418 -80.951961
LeftForeArm -2.348359 -0.000000 113.173440
LeftHand -9.434034 0.000000 31.868603
LeftHandThumb1 -26.253704 0.000000 33.147579
RightShoulder -10.267849 -0.307228 -7.585166
RightArm 11.223983 -32.483559 79.763612
RightForeArm -31.623941 -0.000000 32.223772
RightHand -15.330777 0.000000 9.861203
RightHandThumb1 -24.326973 -0.000000 -32.862282
LeftUpLeg -17.771351 -8.443028 0.748737
LeftLeg 15.440530 -0.000000 -0.000000
LeftFoot -22.389029 13.888813 -22.822750
LeftToeBase 13.083937 -0.000000 -0.000000
RightUpLeg -17.261850 9.162569 -2.539441
RightLeg 13.276688 -0.000000 -0.000000
RightFoot -19.006466 -0.504481 11.743876
RightToeBase -2.572904 -0.000000 0.000000
3666
root -3.365651 32.164986 -6.488082 13.984383 -11.032535 -4.459789
Spine -2.547377 -2.608849 -3.861052
Head 10.342258 7.731484 11.792381
LeftShoulder -15.431096 18.301547 17.016148
LeftArm 2.057355 -26.986516 -81.113604
LeftForeArm -2.249332 -0.000000 112.981101
LeftHand -9.382772 -0.000000 31.550460
LeftHandThumb1 -26.253704 0.000000 33.147579
RightShoulder -10.301041 -0.371049 -7.643347
RightArm 11.074857 -32.348349 79.840486
RightForeArm -31.717113 -0.000000 32.069450
RightHand -15.232408 -0.000000 10.108005
RightHandThumb1 -24.326973 -0.000000 -32.862282
LeftUpLeg -17.649970 -8.564967 0.690530
LeftLeg 15.340584 -0.000000 -0.000000
LeftFoot -22.357319 13.761234 -22.914296
LeftToeBase 13.154037 -0.000000 -0.000000
RightUpLeg -17.156351 9.037224 -2.640827
RightLeg 13.198941 -0.000000 -0.000000
RightFoot -18.946448 -0.263233 11.722395
RightToeBase -2.598755 -0.000000 0.000000
3667
root -3.403932 32.160244 -6.483926 13.858077 -10.814508 -4.280413
Spine -2.582859 -2.643317 -3.935180
Head 10.110166 7.833240 11.692567
LeftShoulder -15.509283 18.331711 16.991801
LeftArm 2.248954 -26.711781 -81.229039
LeftForeArm -1.686764 -0.000000 112.842245
LeftHand -9.900820 -0.000000 31.859033
LeftHandThumb1 -26.253704 0.000000 33.147579
RightShoulder -10.379033 -0.447416 -7.697232
RightArm 10.966309 -32.260004 79.893284
RightForeArm -31.695270 0.000000 31.886221
RightHand -15.127932 -0.000000 10.053019
RightHandThumb1 -24.326973 -0.000000 -32.862282
LeftUpLeg -17.486443 -8.749811 0.620491
LeftLeg 15.185024 -0.000000 -0.000000
LeftFoot -22.299479 13.674553 -22.960002
LeftToeBase 13.232216 -0.000000 -0.000000
RightUpLeg -16.969065 8.932175 -2.766113
RightLeg 13.015393 -0.000000 -0.000000
RightFoot -18.896133 -0.043000 11.738135
RightToeBase -2.539276 -0.000000 0.000000
3668
root -3.439548 32.154170 -6.482303 13.749239 -10.590659 -4.086697
Spine -2.640121 -2.714296 -4.021694
Head 9.899214 7.973858 11.576478
LeftShoulder -15.577265 18.357466 17.010187
LeftArm 2.379180 -26.514249 -81.350193
LeftForeArm -1.408297 -0.000000 112.662975
LeftHand -10.072431 -0.000000 31.757286
LeftHandThumb1 -26.253704 0.000000 33.147579
RightShoulder -10.433779 -0.494843 -7.756400
RightArm 10.820819 -32.187323 79.897751
RightForeArm -31.752873 -0.000000 31.853152
RightHand -15.078389 -0.000000 10.398435
RightHandThumb1 -24.326973 -0.000000 -32.862282
LeftUpLeg -17.390226 -8.845063 0.512457
LeftLeg 15.122001 -0.000000 -0.000000
LeftFoot -22.213399 13.535120 -22.933715
LeftToeBase 13.202795 -0.000000 -0.000000
RightUpLeg -16.825278 8.858706 -2.929752
RightLeg 12.895893 -0.000000 -0.000000
RightFoot -18.862711 0.124219 11.743996
RightToeBase -2.593162 -0.000000 0.000000
3669
root -3.479058 32.148289 -6.478619 13.631393 -10.365030 -3.889142
Spine -2.688631 -2.757362 -4.112284
Head 9.678085 8.065240 11.449090
LeftShoulder -15.610865 18.329434 17.027881
LeftArm 2.423702 -26.385897 -81.405806
LeftForeArm -1.423191 0.000000 112.487902
LeftHand -10.091854 -0.000000 31.479550
LeftHandThumb1 -26.253704 0.000000 33.147579
RightShoulder -10.518912 -0.574279 -7.827435
RightArm 10.726914 -32.176188 79.890493
RightForeArm -31.600412 -0.000000 31.720707
RightHand -15.038225 0.000000 10.398563
RightHandThumb1 -24.326973 -0.000000 -32.862282
LeftUpLeg -17.279809 -8.912791 0.395235
LeftLeg 15.061279 -0.000000 -0.000000
LeftFoot -22.122493 13.402412 -22.883044
LeftToeBase 13.148930 -0.000000 -0.000000
RightUpLeg -16.638185 8.891696 -3.115964
RightLeg 12.731040 -0.000000 -0.000000
RightFoot -18.800351 0.228937 11.868249
RightToeBase -2.814575 -0.000000 0.000000
